<?xml version="1.0" encoding="UTF-8"?>
<svg width="22px" height="26px" viewBox="0 0 22 26" version="1.1" xmlns="http://www.w3.org/2000/svg" xmlns:xlink="http://www.w3.org/1999/xlink">
    <!-- Generator: Sketch 63.1 (92452) - https://sketch.com -->
    <title>Account</title>
    <desc>Created with Sketch.</desc>
    <g id="Web-Admin" stroke="none" stroke-width="1" fill="none" fill-rule="evenodd" opacity="0.539969308">
        <path d="M10.9374739,12.6250224 C14.3896237,12.6250224 17.187459,9.827187 17.187459,6.37503725 C17.187459,2.92288751 14.3896237,0.125052154 10.9374739,0.125052154 C7.48532418,0.125052154 4.68748882,2.92288751 4.68748882,6.37503725 C4.68748882,9.827187 7.48532418,12.6250224 10.9374739,12.6250224 Z M19.5312034,25.1249925 C20.8251457,25.1249925 21.8749478,24.0751904 21.8749478,22.7812481 L21.8749478,20.7500221 C21.8749478,17.1269743 18.9354922,14.1875186 15.3124444,14.1875186 L14.4970548,14.1875186 C13.4130635,14.6855739 12.2070021,14.9687668 10.9374739,14.9687668 C9.6679457,14.9687668 8.46679576,14.6855739 7.37789302,14.1875186 L6.56250343,14.1875186 C2.93945565,14.1875186 0,17.1269743 0,20.7500221 L0,22.7812481 C0,24.0751904 1.04980218,25.1249925 2.34374441,25.1249925 L19.5312034,25.1249925 Z" id="Account" fill="#252525" fill-rule="nonzero"></path>
    </g>
</svg>