<?xml version="1.0" encoding="UTF-8"?>
<svg width="25px" height="23px" viewBox="0 0 25 23" version="1.1" xmlns="http://www.w3.org/2000/svg" xmlns:xlink="http://www.w3.org/1999/xlink">
    <!-- Generator: Sketch 63.1 (92452) - https://sketch.com -->
    <title>Dashboard</title>
    <desc>Created with Sketch.</desc>
    <g id="Web-Admin" stroke="none" stroke-width="1" fill="none" fill-rule="evenodd">
        <path d="M23.8280682,10.8437742 C24.4752777,10.8437742 24.9999404,10.3191115 24.9999404,9.67190201 L24.9999404,1.85942063 C24.9999404,1.2122111 24.4752777,0.687548429 23.8280682,0.687548429 L14.4530905,0.687548429 C13.805881,0.687548429 13.2812183,1.2122111 13.2812183,1.85942063 L13.2812183,9.67190201 C13.2812183,10.3191115 13.805881,10.8437742 14.4530905,10.8437742 L23.8280682,10.8437742 Z M10.5468499,10.8437742 C11.1940594,10.8437742 11.7187221,10.3191115 11.7187221,9.67190201 L11.7187221,1.85942063 C11.7187221,1.2122111 11.1940594,0.687548429 10.5468499,0.687548429 L1.17187221,0.687548429 C0.524662674,0.687548429 0,1.2122111 0,1.85942063 L0,9.67190201 C0,10.3191115 0.524662674,10.8437742 1.17187221,10.8437742 L10.5468499,10.8437742 Z M10.5468499,22.5624963 C11.1940594,22.5624963 11.7187221,22.0378336 11.7187221,21.3906241 L11.7187221,13.5781427 C11.7187221,12.9309332 11.1940594,12.4062705 10.5468499,12.4062705 L1.17187221,12.4062705 C0.524662674,12.4062705 0,12.9309332 0,13.5781427 L0,21.3906241 C0,22.0378336 0.524662674,22.5624963 1.17187221,22.5624963 L10.5468499,22.5624963 Z M23.8280682,22.5624963 C24.4752777,22.5624963 24.9999404,22.0378336 24.9999404,21.3906241 L24.9999404,13.5781427 C24.9999404,12.9309332 24.4752777,12.4062705 23.8280682,12.4062705 L14.4530905,12.4062705 C13.805881,12.4062705 13.2812183,12.9309332 13.2812183,13.5781427 L13.2812183,21.3906241 C13.2812183,22.0378336 13.805881,22.5624963 14.4530905,22.5624963 L23.8280682,22.5624963 Z" id="Dashboard" fill="#252525" fill-rule="nonzero"></path>
    </g>
</svg>