<?xml version="1.0" encoding="UTF-8"?>
<svg width="390px" height="80px" viewBox="0 0 390 80" version="1.1" xmlns="http://www.w3.org/2000/svg" xmlns:xlink="http://www.w3.org/1999/xlink">
    <title>Group 2</title>
    <defs>
        <linearGradient x1="136.987305%" y1="100%" x2="-15.4174805%" y2="-11.9628906%" id="linearGradient-1">
            <stop stop-color="#F5C049" offset="0%"></stop>
            <stop stop-color="#FFB202" offset="100%"></stop>
        </linearGradient>
    </defs>
    <g id="Page-1" stroke="none" stroke-width="1" fill="none" fill-rule="evenodd">
        <g id="Group-2">
            <g id="Group">
                <circle id="Oval" fill="url(#linearGradient-1)" cx="40" cy="40" r="40"></circle>
                <polygon id="Path-2" fill="#F9F9F9" fill-rule="nonzero" points="28.655862 33.0805378 40.352317 23 52.085086 33.1123164 61.1057952 25.109438 66 30.6863955 52.1559042 42.9682646 40.352317 32.7958824 28.5119056 43 15 30.6495879 19.9759534 25.1462456"></polygon>
                <polygon id="Path-2" fill="#F9F9F9" fill-rule="nonzero" points="28.655862 51.0805378 40.352317 41 52.085086 51.1123164 61.1057952 43.109438 66 48.6863955 52.1559042 60.9682646 40.352317 50.7958824 28.5119056 61 15 48.6495879 19.9759534 43.1462456"></polygon>
            </g>
            <path d="M103.2085,42 L108.4555,26.358 L113.5375,42 L119.2795,42 L126.8365,18.9 L121.7215,18.9 L116.3425,35.268 L111.0625,18.9 L106.1125,18.9 L100.6675,35.136 L95.4535,18.9 L89.9095,18.9 L97.4995,42 L103.2085,42 Z M146.5125,42 L146.5125,37.71 L133.9395,37.71 L133.9395,32.364 L144.6645,32.364 L144.6645,28.206 L133.9395,28.206 L133.9395,23.19 L146.0835,23.19 L146.0835,18.9 L128.6265,18.9 L128.6265,42 L146.5125,42 Z M166.5185,42 L166.5185,37.644 L154.9355,37.644 L154.9355,18.9 L149.5895,18.9 L149.5895,42 L166.5185,42 Z M185.2705,42 L185.2705,37.644 L173.6875,37.644 L173.6875,18.9 L168.3415,18.9 L168.3415,42 L185.2705,42 Z M192.3735,42 L192.3735,27.975 L203.8905,42 L208.2795,42 L208.2795,18.9 L202.9995,18.9 L202.9995,32.925 L191.5155,18.9 L187.0935,18.9 L187.0935,42 L192.3735,42 Z M230.4635,42 L230.4635,37.71 L217.8905,37.71 L217.8905,32.364 L228.6155,32.364 L228.6155,28.206 L217.8905,28.206 L217.8905,23.19 L230.0345,23.19 L230.0345,18.9 L212.5775,18.9 L212.5775,42 L230.4635,42 Z M241.1305,42.396 C247.7305,42.396 250.9315,39.096 250.9315,35.235 C250.9315,26.754 237.5005,29.691 237.5005,25.434 C237.5005,23.982 238.7215,22.794 241.8895,22.794 C243.9355,22.794 246.1465,23.388 248.2915,24.609 L249.9415,20.55 C247.7965,19.197 244.8265,18.504 241.9225,18.504 C235.3555,18.504 232.1875,21.771 232.1875,25.698 C232.1875,34.278 245.6185,31.308 245.6185,35.631 C245.6185,37.05 244.3315,38.106 241.1635,38.106 C238.3915,38.106 235.4875,37.116 233.5405,35.697 L231.7255,39.723 C233.7715,41.307 237.4675,42.396 241.1305,42.396 Z M261.0045,42.396 C267.6045,42.396 270.8055,39.096 270.8055,35.235 C270.8055,26.754 257.3745,29.691 257.3745,25.434 C257.3745,23.982 258.5955,22.794 261.7635,22.794 C263.8095,22.794 266.0205,23.388 268.1655,24.609 L269.8155,20.55 C267.6705,19.197 264.7005,18.504 261.7965,18.504 C255.2295,18.504 252.0615,21.771 252.0615,25.698 C252.0615,34.278 265.4925,31.308 265.4925,35.631 C265.4925,37.05 264.2055,38.106 261.0375,38.106 C258.2655,38.106 255.3615,37.116 253.4145,35.697 L251.5995,39.723 C253.6455,41.307 257.3415,42.396 261.0045,42.396 Z M276.7645,42.264 C278.5465,42.264 279.9655,40.911 279.9655,39.03 C279.9655,37.116 278.5465,35.862 276.7645,35.862 C274.9825,35.862 273.5635,37.116 273.5635,39.03 C273.5635,40.911 274.9825,42.264 276.7645,42.264 Z M292.4145,42 L297.6615,26.358 L302.7435,42 L308.4855,42 L316.0425,18.9 L310.9275,18.9 L305.5485,35.268 L300.2685,18.9 L295.3185,18.9 L289.8735,35.136 L284.6595,18.9 L279.1155,18.9 L286.7055,42 L292.4145,42 Z M328.7555,42.396 C336.0155,42.396 341.3945,37.347 341.3945,30.45 C341.3945,23.553 336.0155,18.504 328.7555,18.504 C321.4625,18.504 316.1165,23.586 316.1165,30.45 C316.1165,37.314 321.4625,42.396 328.7555,42.396 Z M328.7555,37.842 C324.6305,37.842 321.5285,34.839 321.5285,30.45 C321.5285,26.061 324.6305,23.058 328.7555,23.058 C332.8805,23.058 335.9825,26.061 335.9825,30.45 C335.9825,34.839 332.8805,37.842 328.7555,37.842 Z M349.5865,42 L349.5865,35.565 L354.5035,35.565 L358.9585,42 L364.7005,42 L359.5195,34.575 C362.5225,33.288 364.2715,30.747 364.2715,27.282 C364.2715,22.101 360.4105,18.9 354.2395,18.9 L344.2405,18.9 L344.2405,42 L349.5865,42 Z M353.9425,31.308 L349.5865,31.308 L349.5865,23.256 L353.9425,23.256 C357.2095,23.256 358.8595,24.741 358.8595,27.282 C358.8595,29.79 357.2095,31.308 353.9425,31.308 Z M372.6285,42 L372.6285,36.159 L375.7305,32.925 L383.1225,42 L389.3595,42 L379.2285,29.196 L388.7985,18.9 L382.8585,18.9 L372.6285,29.691 L372.6285,18.9 L367.3155,18.9 L367.3155,42 L372.6285,42 Z" id="WELLNESS.WORK" fill="#000000" fill-rule="nonzero"></path>
            <path d="M94.726,62 C96.934,62 98.086,61.16 98.086,59.708 C98.086,58.652 97.486,57.932 96.55,57.632 C97.234,57.272 97.666,56.624 97.666,55.784 C97.666,54.476 96.586,53.6 94.486,53.6 L90.382,53.6 L90.382,62 L94.726,62 Z M94.246,57.044 L92.314,57.044 L92.314,55.064 L94.246,55.064 C95.194,55.064 95.71,55.388 95.71,56.048 C95.71,56.708 95.194,57.044 94.246,57.044 Z M94.582,60.536 L92.314,60.536 L92.314,58.46 L94.582,58.46 C95.59,58.46 96.13,58.796 96.13,59.504 C96.13,60.224 95.59,60.536 94.582,60.536 Z M103.198,62 L103.198,59.024 L106.462,53.6 L104.554,53.6 L102.31,57.332 L100.066,53.6 L98.002,53.6 L101.254,59 L101.254,62 L103.198,62 Z M114.262,62.144 C115.726,62.144 116.938,61.616 117.73,60.644 L116.482,59.492 C115.918,60.152 115.21,60.488 114.37,60.488 C112.798,60.488 111.682,59.384 111.682,57.8 C111.682,56.216 112.798,55.112 114.37,55.112 C115.21,55.112 115.918,55.448 116.482,56.096 L117.73,54.944 C116.938,53.984 115.726,53.456 114.274,53.456 C111.658,53.456 109.714,55.268 109.714,57.8 C109.714,60.332 111.658,62.144 114.262,62.144 Z M120.766,62 L120.766,58.556 L124.582,58.556 L124.582,62 L126.526,62 L126.526,53.6 L124.582,53.6 L124.582,56.912 L120.766,56.912 L120.766,53.6 L118.822,53.6 L118.822,62 L120.766,62 Z M129.19,62 L129.934,60.2 L133.834,60.2 L134.578,62 L136.618,62 L132.862,53.6 L130.942,53.6 L127.198,62 L129.19,62 Z M133.222,58.724 L130.558,58.724 L131.89,55.508 L133.222,58.724 Z M143.434,62 L143.434,60.416 L139.222,60.416 L139.222,53.6 L137.278,53.6 L137.278,62 L143.434,62 Z M150.466,62 L150.466,60.416 L146.254,60.416 L146.254,53.6 L144.31,53.6 L144.31,62 L150.466,62 Z M157.846,62 L157.846,60.44 L153.274,60.44 L153.274,58.496 L157.174,58.496 L157.174,56.984 L153.274,56.984 L153.274,55.16 L157.69,55.16 L157.69,53.6 L151.342,53.6 L151.342,62 L157.846,62 Z M161.098,62 L161.098,56.9 L165.286,62 L166.882,62 L166.882,53.6 L164.962,53.6 L164.962,58.7 L160.786,53.6 L159.178,53.6 L159.178,62 L161.098,62 Z M172.714,62.144 C173.914,62.144 175.186,61.772 176.11,61.076 L176.11,57.668 L174.334,57.668 L174.334,60.128 C173.842,60.392 173.35,60.488 172.822,60.488 C171.214,60.488 170.098,59.372 170.098,57.8 C170.098,56.204 171.214,55.112 172.846,55.112 C173.698,55.112 174.406,55.412 175.018,56.06 L176.266,54.908 C175.45,53.96 174.226,53.456 172.75,53.456 C170.074,53.456 168.13,55.268 168.13,57.8 C168.13,60.332 170.074,62.144 172.714,62.144 Z M184.198,62 L184.198,60.44 L179.626,60.44 L179.626,58.496 L183.526,58.496 L183.526,56.984 L179.626,56.984 L179.626,55.16 L184.042,55.16 L184.042,53.6 L177.694,53.6 L177.694,62 L184.198,62 Z M187.354,62 L187.354,57.068 L189.814,61.112 L190.69,61.112 L193.162,56.96 L193.174,62 L194.998,62 L194.974,53.6 L193.378,53.6 L190.282,58.82 L187.138,53.6 L185.53,53.6 L185.53,62 L187.354,62 Z M203.278,62 L203.278,60.44 L198.706,60.44 L198.706,58.496 L202.606,58.496 L202.606,56.984 L198.706,56.984 L198.706,55.16 L203.122,55.16 L203.122,53.6 L196.774,53.6 L196.774,62 L203.278,62 Z" id="BYCHALLENGEME" fill="#9B9B9B" fill-rule="nonzero"></path>
        </g>
    </g>
</svg>